# xmcd CD database file
#
# Track frame offsets:
#	150
#	14822
#	34272
#	49328
#	71852
#	91139
#	111572
#	138052
#	159905
#	186842
#	205312
#	222941
#	245125
#	262545
#	282646
#	304892
#
# Disc length: 4312 seconds
#
# Revision: 0
# Processed by: cddbd v1.5.2PL0 Copyright (c) Steve Scherf et al.
# Submitted via: CDex 1.50
#
DISCID=f510d610
DTITLE=Era - Best 2000
DYEAR=2000
DGENRE=New Age
TTITLE0=Era
TTITLE1=Ameno
TTITLE2=Cathar Rhythm
TTITLE3=Mother
TTITLE4=Avemano
TTITLE5=Enae Volare Mezzo
TTITLE6=Sacral Nirvana
TTITLE7=Sangha's Love For Amitabha
TTITLE8=Donovan My Timeless Cosmic Friend
TTITLE9=Spring In Lhasa
TTITLE10=Divano
TTITLE11=Sentence
TTITLE12=Don't U
TTITLE13=Infanati
TTITLE14=Hymne
TTITLE15=Misere Mani
EXTD=YEAR: 2000
EXTT0=
EXTT1=
EXTT2=
EXTT3=
EXTT4=
EXTT5=
EXTT6=
EXTT7=
EXTT8=
EXTT9=
EXTT10=
EXTT11=
EXTT12=
EXTT13=
EXTT14=
EXTT15=
PLAYORDER=
